<?xml version="1.0" standalone="no"?>
<!DOCTYPE svg PUBLIC "-//W3C//DTD SVG 20010904//EN"
 "http://www.w3.org/TR/2001/REC-SVG-20010904/DTD/svg10.dtd">
<svg version="1.0" xmlns="http://www.w3.org/2000/svg"
 width="700.000000pt" height="700.000000pt" viewBox="0 0 700.000000 700.000000"
 preserveAspectRatio="xMidYMid meet">
<metadata>
Created by potrace 1.14, written by Peter Selinger 2001-2017
</metadata>
<g transform="translate(0.000000,700.000000) scale(0.100000,-0.100000)"
fill="#000000" stroke="none">
<path d="M5020 6000 c0 -26 4 -30 28 -30 36 0 40 5 34 35 -3 20 -10 25 -33 25
-26 0 -29 -4 -29 -30z"/>
<path d="M3950 5600 c0 -27 3 -30 33 -30 35 0 34 -2 28 53 -1 4 -14 7 -31 7
-27 0 -30 -3 -30 -30z"/>
<path d="M4910 5540 c0 -27 3 -30 30 -30 27 0 30 3 30 30 0 27 -3 30 -30 30
-27 0 -30 -3 -30 -30z"/>
<path d="M4479 5425 c-8 -38 -2 -50 26 -50 25 0 31 4 33 28 3 24 0 27 -27 27
-17 0 -31 -2 -32 -5z"/>
<path d="M4724 5069 c2 -47 13 -56 60 -51 32 4 34 6 34 48 l1 44 -48 0 -49 0
2 -41z"/>
<path d="M3780 5063 c0 -29 3 -32 28 -30 22 2 28 8 30 33 3 27 0 30 -28 29
-27 0 -30 -3 -30 -32z"/>
<path d="M4252 5092 c-7 -2 -12 -27 -12 -63 l0 -59 65 0 65 0 -1 60 c-1 33 -4
60 -8 61 -28 3 -100 4 -109 1z"/>
<path d="M4327 4888 c-9 -4 -12 -32 -12 -87 l1 -81 -103 0 -103 0 0 63 0 63
-60 0 c-47 0 -60 -3 -61 -15 -1 -9 -2 -36 -3 -61 l-1 -45 64 -5 64 -5 0 -85
c-1 -47 -2 -90 -2 -96 -1 -6 -27 -16 -58 -23 -239 -51 -413 -158 -526 -325
-16 -22 -30 -41 -32 -41 -2 0 -24 19 -49 43 -146 137 -368 252 -576 298 -243
54 -570 56 -760 4 -25 -7 -56 -14 -69 -17 -45 -8 -204 -73 -278 -114 -236
-130 -442 -345 -567 -591 -49 -98 -100 -238 -122 -340 -36 -168 -42 -239 -39
-453 2 -121 6 -231 8 -245 11 -54 15 -77 22 -115 58 -324 254 -662 500 -862
170 -138 406 -240 625 -269 19 -2 62 -8 95 -12 72 -10 324 -8 415 2 324 37
594 162 804 372 38 38 66 62 63 54 -3 -8 -44 -105 -92 -215 -48 -110 -89 -206
-92 -213 -4 -10 182 -12 948 -10 l954 3 79 23 c165 48 285 119 384 227 108
118 187 303 207 490 4 33 9 73 11 88 3 21 1 27 -8 21 -9 -6 -9 -3 1 9 11 14
12 48 8 165 -6 151 -8 166 -33 265 -67 262 -263 445 -581 544 l-88 27 -495 6
-495 5 -55 28 c-89 45 -132 131 -123 247 8 119 49 191 129 230 l49 24 700 0
700 1 32 65 c18 36 76 164 129 285 53 121 104 238 114 260 10 22 17 42 15 45
-2 3 -249 5 -549 5 -477 0 -545 2 -548 15 -2 8 -4 65 -3 127 l0 112 -132 3
c-127 3 -133 2 -134 -17 -1 -11 -2 -69 -3 -130 l-1 -110 -112 0 c-125 0 -115
-6 -115 65 0 11 0 42 1 68 l1 49 65 -1 c36 -1 65 1 66 4 1 3 2 44 3 93 1 72
-1 87 -14 88 -78 4 -153 3 -163 -3z m-1637 -1032 c200 -52 330 -189 413 -436
67 -200 81 -508 31 -732 -65 -301 -232 -511 -439 -554 -5 -1 -23 -5 -40 -9
-57 -12 -220 -12 -280 0 -108 23 -140 34 -199 70 -32 19 -63 32 -69 28 -5 -3
-7 -2 -4 4 3 5 -12 27 -34 49 -118 114 -215 327 -264 579 -7 38 -7 260 0 300
3 17 8 46 11 65 12 68 14 79 35 146 24 79 88 213 125 261 14 18 23 37 19 42
-3 5 0 13 6 17 8 4 9 3 5 -4 -15 -24 6 -11 35 22 66 75 190 137 324 160 93 16
245 13 325 -8z m1375 -1153 c58 -13 148 -17 520 -19 248 -1 464 -5 480 -10 17
-4 49 -19 72 -33 80 -50 111 -112 111 -225 0 -92 -8 -127 -48 -189 -23 -37
-43 -54 -90 -76 l-60 -28 -665 0 c-486 0 -665 3 -661 11 2 6 25 56 50 111 39
86 84 222 101 301 13 61 25 132 30 174 2 14 3 26 4 27 1 1 20 -5 44 -13 23 -8
74 -22 112 -31z m1296 -116 c-10 -9 -11 -8 -5 6 3 10 9 15 12 12 3 -3 0 -11
-7 -18z"/>
<path d="M3842 4610 c1 -27 4 -30 32 -30 28 0 31 3 31 30 0 27 -3 30 -32 30
-29 0 -32 -3 -31 -30z"/>
</g>
</svg>
