<?xml version="1.0" encoding="UTF-8"?>
<svg id="uuid-185c64dc-5224-41c2-8bea-1f4185945589" data-name="Lag 1" xmlns="http://www.w3.org/2000/svg" xmlns:xlink="http://www.w3.org/1999/xlink" viewBox="0 0 466.24 480">
  <defs>
    <style>
      .uuid-e57d42f1-d385-4173-8e48-5f1879729625 {
        fill: url(#uuid-d187a0f2-cb2b-4858-a7c2-74137551a02f);
      }

      .uuid-c7dfa025-edfd-468c-8603-d9a1f69f3939 {
        fill: url(#uuid-49767a90-8234-4641-8a14-3200ba86e61d);
      }

      .uuid-2b348d54-179a-4c67-bca1-4d6b10f511ad {
        fill: url(#uuid-eb3ad4b1-c8a1-43bd-8154-b04313d9c6b1);
      }

      .uuid-bb3a9a54-69b0-4125-8238-d7e7f5a873d0 {
        fill: url(#uuid-473ea02f-f7b7-4d71-a2db-f2aaebe30b5d);
      }
    </style>
    <linearGradient id="uuid-d187a0f2-cb2b-4858-a7c2-74137551a02f" x1="19.4" y1="106.86" x2="318.11" y2="313.65" gradientUnits="userSpaceOnUse">
      <stop offset="0" stop-color="#00b5d4"/>
      <stop offset=".52" stop-color="#7e4292"/>
      <stop offset="1" stop-color="#e8326d"/>
    </linearGradient>
    <linearGradient id="uuid-473ea02f-f7b7-4d71-a2db-f2aaebe30b5d" x1="403.57" y1="380.28" x2="90.59" y2="-15.51" gradientUnits="userSpaceOnUse">
      <stop offset="0" stop-color="#7e4292"/>
      <stop offset=".44" stop-color="#e8326d"/>
      <stop offset=".8" stop-color="#f28867"/>
      <stop offset="1" stop-color="#f8b365"/>
    </linearGradient>
    <linearGradient id="uuid-eb3ad4b1-c8a1-43bd-8154-b04313d9c6b1" x1="266.52" y1="488.66" x2="-46.46" y2="92.87" xlink:href="#uuid-473ea02f-f7b7-4d71-a2db-f2aaebe30b5d"/>
    <linearGradient id="uuid-49767a90-8234-4641-8a14-3200ba86e61d" x1="5.8" y1="125.06" x2="304.5" y2="331.86" xlink:href="#uuid-d187a0f2-cb2b-4858-a7c2-74137551a02f"/>
  </defs>
  <path class="uuid-e57d42f1-d385-4173-8e48-5f1879729625" d="M240.37,172.89c-92.84,98.74-122.5,11-189.05,12.27-28.33,.54-51.32,22.96-51.32,51.32s23,50.79,51.32,51.32c66.54,1.26,96.21-86.47,189.05,12.27,0,0,21.2,22.46,60.22,22.46,47.53,0,86.05-38.52,86.05-86.05s-38.52-86.05-86.05-86.05c-39.02,0-60.22,22.46-60.22,22.46Z"/>
  <path class="uuid-bb3a9a54-69b0-4125-8238-d7e7f5a873d0" d="M440.94,335.36c-9.55-6.55-20.74-9.99-32.34-9.99-13.18,0-26.28,4.53-36.91,12.76-21.9,16.99-48.14,25.94-75.91,25.94-2.25,0-4.49-.07-6.78-.19-30.77-1.65-58.77-14.86-79.66-35.3-22.09-21.52-36.27-51.13-37.55-83.62-1.35-34.1,10.93-66.41,34.55-90.96,5.28-5.5,10.97-10.41,16.99-14.75,20.92-15.16,45.97-23.32,72.43-23.32,28.04,0,54.5,9.13,76.51,26.43,10.22,7.97,22.95,12.39,35.9,12.39,11.75,0,23.1-3.52,32.79-10.18,15.38-10.59,24.59-27.36,25.23-46.08,.64-18.34-7.19-35.34-21.45-46.64C402.05,17.97,350.54,.04,295.78,0,210.62,0,135.98,43.72,93.38,110.35c-22.23,34.85-35.75,75.91-37.43,120.31v.15c-.15,4.23-.19,8.72-.11,13.29,1.05,63.26,26.47,122.55,71.61,166.95,45.14,44.47,104.96,68.95,168.34,68.95,54.5,0,105.9-17.82,148.57-51.51,14.49-11.45,22.46-28.64,21.86-47.13-.64-18.6-9.77-35.3-25.27-46Zm-5.88,81.38c-40.02,31.56-88.19,48.25-139.29,48.25-61.69,0-119.26-24.48-162.08-68.91-18.57-19.28-33.35-41.44-43.91-65.39-11.83-26.88-18.34-56.04-18.94-86.02-.11-4.87-.07-9.25,.07-13.29,2.1-56.94,24.97-108.07,61.24-146.29C173.15,41.77,231.28,15.01,295.78,15.01c51.32,0,99.61,16.81,139.66,48.59,10.48,8.31,16.25,20.85,15.8,34.36-.49,13.93-7.34,26.39-18.75,34.25-7.19,4.94-15.57,7.52-24.29,7.52-9.77,0-18.98-3.18-26.61-9.21-24.33-19.09-54.8-29.61-85.8-29.61-29.09,0-56.67,8.8-79.88,25.15-7.26,5.13-14.07,10.97-20.36,17.52-26.05,27.1-39.79,62.74-38.74,100.39l.04,1.53c1.31,34.51,15.53,67.19,39.98,92.01,.82,.82,1.65,1.65,2.47,2.4,24.14,23.4,55.59,37.17,88.94,38.93,2.51,.15,5.05,.22,7.56,.22,31.11,0,60.53-10.07,85.08-29.09,8.05-6.21,17.89-9.66,27.74-9.66,8.57,0,16.81,2.58,23.96,7.49,11.42,7.82,18.19,20.25,18.68,34.03,.45,13.7-5.46,26.39-16.17,34.89Z"/>
  <path class="uuid-2b348d54-179a-4c67-bca1-4d6b10f511ad" d="M70.84,244.66c-.11-4.87-.07-9.25,.07-13.29,.53-14.5,2.43-28.62,5.54-42.24-4.7-1.48-9.55-2.62-14.59-3.3-3.3,14.47-5.33,29.44-5.92,44.83v.15c-.15,4.23-.19,8.72-.11,13.29,.24,14.66,1.85,29.1,4.66,43.2,5.09-.59,9.98-1.67,14.71-3.09-2.58-12.94-4.09-26.15-4.36-39.55Z"/>
  <path class="uuid-c7dfa025-edfd-468c-8603-d9a1f69f3939" d="M158.21,219.86c-1.14,7.91-1.65,15.96-1.42,24.12l.04,1.53c.1,2.54,.29,5.07,.52,7.59,4.89-.11,9.96,.34,15.25,1.51-.38-3.19-.67-6.41-.8-9.66-.36-9.12,.28-18.1,1.83-26.84-5.36,1.27-10.48,1.79-15.42,1.75Z"/>
</svg>