<?xml version="1.0" standalone="no"?>
<!DOCTYPE svg PUBLIC "-//W3C//DTD SVG 20010904//EN"
 "http://www.w3.org/TR/2001/REC-SVG-20010904/DTD/svg10.dtd">
<svg version="1.0" xmlns="http://www.w3.org/2000/svg"
 width="960.000000pt" height="960.000000pt" viewBox="0 0 960.000000 960.000000"
 preserveAspectRatio="xMidYMid meet">
<metadata>
Created by potrace 1.14, written by Peter Selinger 2001-2017
</metadata>
<g transform="translate(0.000000,960.000000) scale(0.100000,-0.100000)"
fill="#000000" stroke="none">
<path d="M5798 9595 c-1 -1 -50 -6 -106 -9 -57 -3 -113 -8 -125 -11 -12 -3
-47 -7 -77 -10 -30 -2 -73 -7 -95 -10 -63 -9 -217 -34 -245 -40 -14 -3 -40 -8
-58 -11 -19 -3 -54 -12 -78 -19 -32 -9 -44 -10 -44 -2 0 9 -2 9 -8 1 -4 -6
-36 -18 -72 -27 -95 -23 -173 -44 -285 -79 -55 -18 -104 -33 -110 -34 -9 -2
-80 -29 -130 -49 -11 -5 -23 -9 -27 -10 -5 -2 -10 -4 -13 -5 -17 -9 -65 -22
-71 -20 -4 1 -10 -2 -13 -7 -3 -5 -53 -28 -111 -52 -104 -44 -346 -165 -468
-235 -35 -20 -66 -36 -68 -36 -3 0 -10 -5 -17 -10 -16 -14 -197 -130 -202
-130 -3 0 -13 -7 -22 -15 -10 -8 -56 -41 -103 -74 -93 -65 -112 -80 -209 -159
-280 -226 -536 -484 -753 -758 -18 -23 -44 -55 -57 -71 -13 -17 -59 -81 -103
-144 -43 -63 -84 -121 -91 -129 -7 -8 -13 -17 -13 -20 -1 -3 -17 -30 -36 -60
-19 -30 -63 -104 -97 -165 -34 -60 -66 -117 -71 -125 -47 -81 -161 -327 -220
-475 -48 -120 -144 -398 -154 -445 -3 -14 -18 -73 -35 -133 -16 -59 -30 -111
-30 -115 -1 -4 -70 -7 -154 -8 -189 -1 -232 -7 -370 -50 -45 -14 -86 -30 -92
-35 -5 -5 -17 -9 -27 -9 -10 0 -18 -4 -18 -10 0 -5 -9 -10 -20 -10 -11 0 -20
-4 -20 -10 0 -5 -5 -10 -11 -10 -6 0 -45 -23 -86 -52 -183 -126 -310 -293
-386 -505 -76 -211 -71 -492 11 -699 46 -114 158 -294 184 -294 6 0 9 -3 5 -6
-6 -6 23 -36 109 -114 47 -43 168 -118 245 -153 60 -27 173 -63 229 -72 19 -3
44 -9 55 -12 11 -4 87 -7 170 -7 126 -1 150 -3 151 -16 0 -8 3 -28 8 -45 7
-31 35 -149 41 -175 4 -18 28 -104 50 -180 9 -30 17 -59 19 -65 5 -20 38 -121
46 -140 4 -11 16 -42 25 -70 10 -27 23 -63 30 -80 7 -16 24 -59 38 -95 14 -36
32 -78 41 -95 9 -16 16 -34 16 -38 0 -14 141 -297 151 -303 5 -3 9 -14 9 -25
0 -10 5 -19 10 -19 6 0 10 -4 10 -10 0 -5 18 -39 40 -75 22 -36 40 -68 40 -71
0 -3 14 -25 30 -49 17 -24 30 -48 30 -54 0 -6 4 -11 8 -11 5 0 14 -10 21 -22
46 -89 282 -410 386 -524 5 -6 44 -49 85 -94 92 -102 274 -284 365 -365 38
-33 76 -67 84 -75 14 -12 122 -101 201 -163 8 -7 49 -36 90 -66 41 -30 77 -58
78 -63 2 -4 8 -8 14 -8 5 0 35 -18 66 -39 73 -50 231 -151 237 -151 3 0 33
-17 67 -38 69 -42 301 -159 413 -209 145 -64 439 -176 490 -187 6 -1 37 -10
70 -20 55 -17 66 -20 87 -25 4 -1 22 -7 40 -13 18 -5 42 -11 53 -13 11 -2 20
-4 20 -5 0 -2 21 -7 60 -15 17 -3 48 -11 70 -17 45 -11 48 -12 160 -33 44 -8
92 -16 108 -17 15 -1 27 -5 27 -8 0 -3 21 -6 48 -8 44 -2 87 -8 87 -12 0 -1
20 -3 45 -5 25 -2 65 -6 90 -9 153 -16 264 -21 500 -21 146 0 306 4 355 8 176
15 210 18 235 23 14 3 45 7 70 9 42 3 63 6 145 21 17 3 41 7 55 9 14 2 45 8
70 14 25 5 59 12 77 16 18 3 45 10 60 16 15 6 29 10 31 9 1 -1 21 2 45 6 23 4
45 7 50 6 4 -1 7 3 7 9 0 5 4 8 9 5 7 -5 21 -1 91 22 8 3 20 6 25 6 6 1 30 8
55 16 25 7 50 14 55 16 22 4 141 46 160 55 12 6 27 11 35 13 8 2 24 7 35 11
11 5 43 17 70 28 28 10 59 23 70 27 11 4 23 8 27 9 4 1 70 30 145 65 169 77
396 196 488 255 69 45 80 51 95 58 8 4 17 9 20 12 3 3 59 42 125 86 66 43 122
82 125 85 3 3 23 19 45 35 22 17 42 32 45 35 3 3 23 18 45 35 67 49 215 204
215 224 0 5 5 11 12 13 21 7 140 236 147 281 0 4 8 21 16 37 9 17 13 30 11 30
-3 0 -1 12 5 26 5 15 12 43 15 63 3 20 9 53 14 73 8 41 6 293 -4 348 -10 55
-12 64 -19 85 -3 11 -8 31 -11 45 -7 34 -57 173 -66 185 -4 6 -20 33 -35 60
-103 187 -291 371 -475 465 -25 13 -46 21 -46 19 -1 -2 -10 3 -20 12 -23 19
-166 65 -244 79 -30 5 -68 12 -85 15 -40 7 -242 7 -280 0 -16 -3 -55 -10 -85
-15 -68 -12 -191 -49 -207 -63 -7 -5 -13 -7 -13 -3 0 16 -274 -142 -300 -173
-3 -3 -22 -17 -42 -31 -21 -14 -38 -29 -38 -33 0 -5 -4 -6 -9 -3 -5 3 -15 -1
-22 -10 -12 -15 -211 -136 -253 -155 -12 -5 -28 -13 -36 -19 -18 -11 -137 -68
-148 -71 -4 -1 -18 -6 -32 -11 -203 -74 -258 -91 -400 -122 -123 -27 -183 -35
-355 -51 -65 -6 -65 -6 -110 -5 -16 0 -45 -1 -62 -3 -18 -2 -33 1 -33 5 0 5
-8 4 -19 -1 -10 -6 -21 -8 -24 -5 -3 3 -41 7 -84 9 -87 4 -189 16 -263 30 -14
3 -41 8 -60 11 -103 18 -337 88 -437 130 -185 78 -322 152 -478 257 -65 45
-77 53 -106 79 -10 10 -22 18 -25 18 -21 0 -270 240 -366 352 -70 83 -148 186
-148 197 0 5 -3 11 -7 13 -9 3 -72 98 -105 156 -55 97 -117 227 -155 322 -56
143 -55 140 -67 185 -43 158 -67 257 -72 294 -3 25 -8 55 -10 66 -16 80 -18
75 23 69 52 -8 205 -60 283 -97 36 -17 68 -31 72 -31 4 -1 13 -7 20 -13 6 -7
17 -13 22 -13 16 0 216 -122 216 -132 0 -4 6 -8 13 -8 7 0 28 -13 47 -30 19
-16 39 -29 43 -30 4 0 18 -9 30 -20 12 -11 64 -54 114 -95 128 -104 164 -137
354 -325 92 -91 179 -175 193 -187 104 -87 351 -222 481 -263 22 -7 49 -16 60
-21 34 -14 128 -40 160 -44 17 -3 44 -8 60 -11 17 -4 39 -8 50 -9 11 -2 45 -7
75 -11 67 -10 376 -11 445 -2 101 14 132 21 220 44 50 13 99 26 110 29 26 6
83 30 165 68 36 17 70 31 77 33 7 1 26 12 42 23 16 12 33 21 38 21 4 0 53 31
107 69 196 137 373 318 476 486 13 22 27 42 30 45 9 8 104 200 124 250 21 53
74 222 81 259 3 14 8 42 11 61 3 19 7 40 9 47 10 29 19 167 19 278 -1 159 -8
231 -38 370 -19 93 -66 232 -108 325 -16 36 -29 65 -27 65 1 0 -10 19 -24 42
-15 24 -27 45 -27 48 0 16 -131 201 -195 274 -69 79 -188 191 -248 233 -17 12
-34 25 -37 28 -23 28 -212 137 -323 186 -109 48 -244 91 -342 110 -22 4 -47 9
-55 11 -26 5 -103 15 -150 18 -94 7 -355 3 -355 -5 0 -1 -16 -3 -35 -5 -64 -5
-139 -19 -220 -41 -58 -16 -79 -21 -107 -28 -63 -17 -278 -112 -358 -159 -116
-69 -226 -158 -364 -296 -196 -195 -323 -311 -430 -393 -103 -78 -203 -148
-211 -148 -6 0 -10 -5 -10 -10 0 -6 -8 -14 -17 -17 -10 -4 -52 -27 -93 -51
-167 -99 -459 -214 -479 -188 -5 6 3 57 19 118 15 59 25 110 22 113 -3 3 0 5
7 5 7 0 10 4 7 9 -3 5 1 25 9 45 8 20 15 38 14 41 0 5 33 100 48 135 3 8 7 17
8 20 22 58 38 93 90 194 62 121 151 268 167 274 4 2 8 8 8 13 0 11 82 121 149
198 74 86 190 202 271 271 41 35 77 66 80 69 22 26 262 185 330 219 19 9 37
19 40 22 7 8 196 95 260 120 62 25 220 77 253 85 12 2 42 9 67 16 66 16 82 20
110 24 14 2 34 6 46 9 12 2 45 7 75 11 176 23 286 30 367 23 23 -2 42 0 42 5
0 4 5 5 10 2 6 -3 49 -8 98 -10 48 -3 103 -7 122 -9 19 -3 60 -8 90 -12 30 -3
58 -8 61 -10 3 -2 21 -6 40 -9 72 -12 145 -27 164 -35 11 -5 43 -14 70 -21 28
-6 54 -16 60 -20 5 -5 16 -9 25 -9 19 0 170 -58 188 -72 6 -6 12 -8 12 -4 0 7
268 -130 290 -148 8 -7 34 -24 58 -36 23 -13 42 -27 42 -32 0 -4 7 -8 15 -8 8
0 15 -5 15 -11 0 -5 5 -7 10 -4 6 3 10 2 10 -4 0 -5 15 -19 33 -30 18 -11 43
-29 56 -40 13 -11 47 -35 75 -53 28 -18 53 -35 56 -38 10 -11 156 -78 215 -99
82 -28 220 -59 275 -61 134 -6 310 2 330 15 4 2 17 6 31 9 13 3 35 8 49 11 14
4 32 8 40 9 8 2 29 9 45 16 17 7 33 14 37 14 3 1 10 4 14 9 4 4 16 7 26 7 10
0 18 5 18 10 0 6 9 10 20 10 11 0 20 4 20 10 0 5 4 9 8 7 9 -2 137 76 187 115
60 47 191 186 230 243 22 33 43 62 46 65 12 10 87 177 109 240 23 68 27 83 36
140 3 19 10 55 14 80 13 66 9 259 -6 337 -23 118 -40 184 -53 212 -5 9 -25 52
-46 96 -98 210 -223 342 -520 551 -137 97 -254 172 -355 229 -47 27 -93 55
-102 63 -10 8 -18 11 -18 6 0 -5 -4 -4 -8 2 -9 14 -376 194 -396 194 -9 0 -16
5 -16 10 0 6 -7 10 -15 10 -8 0 -54 16 -101 36 -145 60 -417 149 -514 169 -8
2 -15 4 -15 5 0 2 -31 10 -205 49 -151 34 -185 40 -248 47 -24 2 -47 6 -50 8
-4 2 -32 7 -62 10 -30 4 -68 9 -85 11 -16 3 -55 7 -85 10 -30 2 -80 7 -110 10
-59 6 -646 16 -652 10z m632 -309 c19 -3 65 -7 101 -11 37 -3 76 -7 87 -10 11
-2 49 -6 84 -10 35 -3 79 -10 98 -15 19 -5 55 -12 80 -15 25 -3 52 -7 60 -10
8 -2 26 -6 40 -9 14 -2 58 -12 99 -21 40 -9 78 -18 85 -19 6 -1 16 -5 23 -9 6
-4 24 -9 40 -11 32 -4 168 -44 258 -76 33 -11 67 -23 75 -25 8 -2 15 -4 15 -5
0 -1 7 -3 15 -5 15 -3 218 -85 302 -122 169 -73 603 -314 658 -365 11 -10 22
-18 25 -18 11 0 125 -84 125 -92 0 -4 6 -8 13 -8 25 0 204 -153 274 -234 27
-32 89 -134 107 -176 10 -25 21 -52 26 -60 6 -13 18 -58 40 -155 18 -83 10
-223 -24 -378 -23 -101 -118 -268 -202 -352 -42 -42 -141 -125 -149 -125 -5 0
-16 -7 -26 -16 -19 -17 -184 -91 -221 -98 -13 -3 -34 -8 -48 -11 -61 -14 -101
-17 -185 -17 -49 0 -103 3 -120 6 -16 4 -48 9 -70 12 -22 4 -44 10 -50 14 -5
4 -23 10 -40 14 -62 15 -238 116 -280 160 -6 6 -18 16 -27 21 -9 6 -60 40
-115 76 -54 36 -120 79 -148 96 -48 28 -262 138 -277 142 -4 1 -28 10 -54 21
-25 11 -50 20 -55 20 -5 0 -17 5 -27 10 -24 14 -262 90 -282 90 -9 0 -20 3
-23 7 -4 3 -17 8 -29 9 -29 4 -63 12 -63 14 0 1 -11 3 -25 5 -14 2 -36 6 -50
9 -24 5 -79 14 -130 21 -14 2 -56 7 -95 10 -38 3 -86 8 -105 11 -44 5 -305 5
-383 -1 -121 -8 -345 -43 -457 -71 -36 -9 -69 -17 -75 -18 -32 -6 -252 -80
-261 -87 -7 -6 -20 -11 -31 -13 -24 -5 -205 -86 -266 -120 -26 -14 -68 -38
-94 -52 -51 -28 -285 -182 -293 -193 -3 -4 -15 -14 -28 -23 -12 -8 -40 -32
-62 -52 -22 -20 -40 -34 -40 -30 0 9 -307 -303 -337 -343 -12 -15 -39 -50 -61
-78 -50 -65 -194 -275 -187 -275 2 0 -6 -15 -19 -34 -62 -91 -219 -444 -212
-477 0 -3 -4 -12 -10 -20 -9 -11 -27 -66 -25 -76 0 -2 -7 -22 -15 -45 -9 -24
-18 -54 -20 -68 -9 -49 -11 -55 -17 -75 -3 -11 -9 -33 -12 -50 -3 -16 -10 -59
-17 -95 -7 -36 -11 -68 -10 -72 1 -6 -78 -3 -133 7 -16 2 -49 7 -72 10 -23 3
-53 9 -67 15 -15 5 -26 8 -26 5 0 -2 -18 2 -40 10 -22 8 -40 12 -40 10 0 -2
-20 4 -45 15 -25 11 -47 19 -50 20 -3 0 -21 7 -41 15 -20 8 -38 15 -41 15 -12
0 -279 126 -285 135 -5 6 -8 6 -8 0 0 -7 -3 -7 -8 0 -4 6 -113 63 -242 127
-227 113 -377 179 -470 208 -65 20 -70 25 -58 67 5 19 11 43 13 52 11 47 37
148 42 161 3 8 7 20 9 27 3 14 43 141 51 163 4 8 7 17 8 20 30 86 125 320 164
405 62 131 176 351 198 381 4 5 14 20 21 32 6 12 18 32 25 44 6 12 15 27 20
32 30 42 91 142 89 149 -1 4 2 7 7 7 4 0 21 19 36 43 33 49 163 225 185 248 8
9 24 27 34 40 91 115 391 423 510 524 32 28 64 55 70 60 23 22 217 171 266
205 28 19 57 40 63 45 26 22 214 141 297 188 138 78 230 127 239 127 6 0 11 5
11 12 0 6 3 9 6 5 4 -3 27 5 53 18 63 32 176 83 236 106 28 11 59 24 70 29 21
10 103 39 120 43 6 2 16 6 22 10 7 5 21 10 30 12 10 2 59 17 110 34 51 17 103
33 115 35 13 3 44 11 70 19 26 8 49 12 52 9 4 -3 6 0 6 7 0 7 4 10 8 7 5 -3
42 4 83 14 87 22 100 25 244 50 190 33 293 45 460 56 55 3 102 8 104 10 5 4
558 -5 601 -10z m-3139 -4768 c5 -66 19 -157 41 -263 12 -55 21 -108 22 -117
0 -10 3 -18 6 -18 3 0 6 -10 8 -22 2 -24 53 -185 97 -303 27 -74 161 -350 195
-400 11 -16 23 -37 26 -45 4 -8 27 -43 51 -77 23 -34 43 -66 43 -71 0 -6 3
-12 8 -14 4 -1 32 -35 62 -74 131 -169 335 -379 460 -474 84 -63 146 -110 155
-117 6 -5 33 -23 60 -40 28 -18 55 -36 60 -41 60 -50 462 -243 555 -267 3 0
35 -11 71 -23 36 -12 74 -24 85 -27 10 -2 44 -11 74 -19 30 -8 66 -17 80 -20
14 -3 35 -7 46 -10 12 -2 37 -7 55 -10 19 -3 43 -7 54 -10 11 -2 47 -7 80 -11
33 -4 71 -9 85 -11 14 -2 70 -6 124 -9 54 -3 102 -8 107 -10 4 -3 10 -1 14 5
4 6 11 7 17 4 25 -16 326 4 478 31 14 3 39 7 55 10 17 3 41 7 55 10 14 3 36 8
50 11 56 11 178 44 230 62 30 11 57 20 60 20 5 1 17 5 65 22 17 6 32 12 35 12
3 1 34 14 70 30 98 45 114 51 123 50 4 -1 7 3 7 10 0 6 3 9 6 6 6 -7 210 105
309 170 39 26 112 77 163 115 139 103 279 170 401 192 14 3 37 7 51 10 34 8
195 8 248 1 24 -3 52 -11 63 -16 10 -6 19 -9 19 -6 0 3 24 -2 53 -11 66 -19
176 -76 245 -126 54 -39 182 -164 182 -178 0 -4 7 -14 15 -22 20 -20 85 -140
90 -167 2 -12 8 -27 13 -34 8 -10 23 -57 26 -81 1 -5 8 -44 15 -85 41 -227
-39 -506 -194 -679 -62 -69 -138 -137 -194 -172 -14 -9 -35 -25 -47 -35 -11
-11 -27 -23 -36 -29 -37 -24 -133 -90 -138 -95 -8 -8 -119 -80 -124 -80 -2 0
-41 -23 -85 -50 -44 -28 -85 -50 -90 -50 -5 0 -11 -3 -13 -7 -4 -10 -369 -192
-418 -208 -14 -5 -48 -19 -75 -30 -38 -17 -147 -58 -160 -61 -5 -1 -41 -13
-80 -27 -59 -21 -162 -54 -200 -63 -5 -2 -53 -14 -105 -28 -104 -27 -260 -63
-317 -72 -19 -3 -45 -8 -57 -10 -11 -2 -37 -6 -56 -9 -19 -3 -51 -7 -70 -10
-19 -2 -62 -7 -95 -11 -33 -3 -71 -8 -85 -10 -178 -30 -760 -24 -1017 10 -74
10 -127 18 -158 22 -16 3 -39 6 -50 8 -11 1 -33 6 -50 9 -16 4 -43 9 -60 11
-16 3 -61 12 -100 21 -88 21 -115 27 -137 29 -10 1 -21 5 -24 9 -4 4 -18 7
-31 7 -12 0 -23 5 -23 11 0 5 -4 8 -8 5 -10 -6 -254 66 -317 94 -11 5 -60 23
-110 41 -49 18 -95 36 -101 41 -7 5 -21 10 -32 13 -23 4 -336 156 -437 213
-98 54 -224 130 -262 158 -17 13 -34 24 -38 24 -3 0 -11 5 -18 10 -13 12 -102
76 -137 100 -60 40 -250 194 -250 201 0 5 -5 9 -10 9 -11 0 -56 39 -137 118
-24 23 -45 42 -47 42 -2 0 -122 121 -221 223 -48 50 -188 215 -230 272 -16 22
-32 42 -36 45 -29 25 -269 382 -269 400 0 6 -4 10 -8 10 -4 0 -13 12 -20 28
-7 15 -23 45 -36 67 -14 22 -41 72 -61 110 -21 39 -41 74 -46 79 -5 6 -9 18
-9 28 0 10 -4 18 -10 18 -5 0 -10 4 -10 9 0 5 -18 49 -40 98 -23 48 -45 97
-50 108 -37 82 -87 214 -83 219 4 3 1 6 -5 6 -7 0 -11 3 -10 8 2 11 -14 66
-23 77 -4 6 -8 15 -8 20 -1 6 -15 53 -31 105 -71 227 -124 463 -104 459 5 -1
12 0 17 1 4 1 10 3 15 4 45 12 99 29 107 34 6 4 12 7 15 7 3 1 22 9 44 18 21
9 44 17 50 17 7 0 17 5 24 12 7 7 12 9 12 4 0 -4 7 0 16 8 8 9 24 16 33 16 10
0 24 7 31 15 7 8 18 15 24 15 10 0 140 64 369 182 40 21 92 47 117 58 25 11
52 24 60 29 20 13 133 63 145 65 6 2 28 10 50 20 47 20 218 73 259 80 16 3 52
10 80 16 110 22 166 21 167 -2z"/>
</g>
</svg>
